<svg width="148" height="25" viewBox="0 0 148 25" fill="none" xmlns="http://www.w3.org/2000/svg">
<path fill-rule="evenodd" clip-rule="evenodd" d="M5.70296 14.9762L0.506195 17.4982C-0.179031 17.8307 -0.165723 18.7608 0.528768 19.0757L12.6677 24.58C12.9353 24.7013 13.2481 24.6949 13.5098 24.5627L25.0549 18.733C25.7188 18.3978 25.7099 17.4953 25.0395 17.1718L23.6883 16.5198L19.2947 18.5873L12.9792 21.7763L5.14755 18.2251L7.94469 16.8677L5.70296 14.9762Z" fill="#172E5F"/>
<path fill-rule="evenodd" clip-rule="evenodd" d="M5.70296 8.80951L0.506195 11.5608C-0.179031 11.9236 -0.165723 12.9382 0.528768 13.2818L12.6677 19.2864C12.9353 19.4188 13.2481 19.4118 13.5098 19.2676L25.0549 12.9079C25.7188 12.5422 25.7099 11.5577 25.0395 11.2048L23.6883 10.4934L19.2947 12.7489L12.9792 16.2278L5.14755 12.3538L7.94469 10.873L5.70296 8.80951Z" fill="#172E5F"/>
<path fill-rule="evenodd" clip-rule="evenodd" d="M23.6883 5.03361L19.2947 7.10968L12.9792 10.3119L5.14755 6.74605L12.9971 2.92084L15.7918 4.2751L18.9973 2.76042L13.5004 0.0967237C13.2336 -0.0325643 12.9176 -0.0322232 12.6511 0.0976433L0.506195 6.0161C-0.179031 6.35002 -0.165723 7.28399 0.528768 7.6002L12.6677 13.1273C12.9353 13.2491 13.2481 13.2427 13.5098 13.11L25.0549 7.25607C25.7188 6.91944 25.7099 6.01324 25.0395 5.68838L23.6883 5.03361Z" fill="#172E5F"/>
<path d="M45.0131 17.9311C48.1361 17.9311 49.6163 16.3168 49.6163 14.4334C49.6163 10.1118 42.8661 11.7429 42.8661 9.23738C42.8661 8.34615 43.5817 7.63989 45.3384 7.63989C46.3306 7.63989 47.4529 7.94258 48.4777 8.56475L49.1446 6.86638C48.1524 6.19375 46.721 5.82381 45.3547 5.82381C42.2317 5.82381 40.7678 7.43811 40.7678 9.33827C40.7678 13.7103 47.5343 12.0456 47.5343 14.5848C47.5343 15.4592 46.786 16.115 45.0131 16.115C43.6143 16.115 42.1666 15.5769 41.2558 14.8202L40.5238 16.5186C41.4672 17.3593 43.2402 17.9311 45.0131 17.9311Z" fill="#172E5F"/>
<path d="M56.1698 15.7787C55.8607 16.0309 55.4541 16.1486 55.0312 16.1486C54.2504 16.1486 53.8275 15.6778 53.8275 14.8034V10.5322H56.1535V8.85062H53.8275V6.79911H51.7943V8.85062H50.3629V10.5322H51.7943V14.8538C51.7943 16.838 52.8841 17.8806 54.7872 17.8806C55.5191 17.8806 56.2511 17.6788 56.739 17.2753L56.1698 15.7787Z" fill="#172E5F"/>
<path d="M61.7298 8.68246C60.3309 8.68246 58.9809 9.05241 58.0538 9.7923L58.8508 11.3225C59.5014 10.7676 60.5099 10.4313 61.4858 10.4313C62.9334 10.4313 63.6491 11.1544 63.6491 12.3819V12.5164H61.4045C58.7694 12.5164 57.7935 13.6935 57.7935 15.1901C57.7935 16.754 59.046 17.8806 61.0304 17.8806C62.3316 17.8806 63.275 17.4434 63.763 16.6699V17.7629H65.6823V12.4996C65.6823 9.91001 64.2347 8.68246 61.7298 8.68246ZM61.4533 16.3504C60.4123 16.3504 59.7942 15.8627 59.7942 15.106C59.7942 14.4502 60.1683 13.9121 61.5509 13.9121H63.6491V14.9547C63.3075 15.8796 62.4455 16.3504 61.4533 16.3504Z" fill="#172E5F"/>
<path d="M72.3561 17.8806C74.0478 17.8806 75.3978 17.1239 76.0647 15.7787L74.5032 14.837C73.9827 15.6946 73.2019 16.0813 72.3399 16.0813C70.8434 16.0813 69.7049 15.022 69.7049 13.2731C69.7049 11.5411 70.8434 10.4649 72.3399 10.4649C73.2019 10.4649 73.9827 10.8517 74.5032 11.7093L76.0647 10.7676C75.3978 9.40554 74.0478 8.68246 72.3561 8.68246C69.6073 8.68246 67.6554 10.5826 67.6554 13.2731C67.6554 15.9636 69.6073 17.8806 72.3561 17.8806Z" fill="#172E5F"/>
<path d="M84.2978 17.7629H86.7702L82.8014 12.5501L86.4286 8.78336H83.9888L79.776 12.8191V5.28571H77.7428V17.7629H79.776V15.3919L81.2887 13.9121L84.2978 17.7629Z" fill="#172E5F"/>
<path d="M88.0835 17.7629H90.1167V5.28571H88.0835V17.7629Z" fill="#172E5F"/>
<path d="M98.9662 8.78336L96.2173 15.4255L93.4847 8.78336H91.3702L95.1601 17.7965L95.0137 18.1497C94.6233 19.0409 94.2004 19.394 93.4847 19.394C92.9317 19.394 92.3787 19.1586 91.9883 18.7718L91.175 20.3189C91.728 20.8402 92.6389 21.1428 93.501 21.1428C94.9486 21.1428 96.0547 20.5207 96.8517 18.486L100.918 8.78336H98.9662Z" fill="#172E5F"/>
<path d="M112.149 17.9311C114.02 17.9311 115.614 17.2416 116.671 15.9636L115.305 14.6184C114.475 15.5601 113.451 16.0141 112.263 16.0141C109.905 16.0141 108.197 14.2989 108.197 11.8774C108.197 9.45598 109.905 7.74079 112.263 7.74079C113.451 7.74079 114.475 8.19481 115.305 9.11967L116.671 7.79123C115.614 6.51325 114.02 5.82381 112.166 5.82381C108.668 5.82381 106.066 8.36297 106.066 11.8774C106.066 15.3919 108.668 17.9311 112.149 17.9311Z" fill="#172E5F"/>
<path d="M122.088 17.8806C124.788 17.8806 126.724 15.9636 126.724 13.2731C126.724 10.5826 124.788 8.68246 122.088 8.68246C119.421 8.68246 117.469 10.5826 117.469 13.2731C117.469 15.9636 119.421 17.8806 122.088 17.8806ZM122.088 16.0813C120.624 16.0813 119.518 14.9883 119.518 13.2731C119.518 11.5579 120.624 10.4649 122.088 10.4649C123.568 10.4649 124.674 11.5579 124.674 13.2731C124.674 14.9883 123.568 16.0813 122.088 16.0813Z" fill="#172E5F"/>
<path d="M135.142 5.28571V9.89319C134.459 9.06922 133.466 8.68246 132.344 8.68246C129.823 8.68246 127.952 10.4817 127.952 13.2731C127.952 16.0645 129.823 17.8806 132.344 17.8806C133.531 17.8806 134.54 17.4602 135.223 16.6026V17.7629H137.175V5.28571H135.142ZM132.588 16.0813C131.124 16.0813 130.002 14.9883 130.002 13.2731C130.002 11.5579 131.124 10.4649 132.588 10.4649C134.052 10.4649 135.174 11.5579 135.174 13.2731C135.174 14.9883 134.052 16.0813 132.588 16.0813Z" fill="#172E5F"/>
<path d="M148 13.3236C148 10.5154 146.146 8.68246 143.608 8.68246C141.022 8.68246 139.119 10.5994 139.119 13.2731C139.119 15.9468 141.006 17.8806 143.917 17.8806C145.414 17.8806 146.634 17.3761 147.414 16.4177L146.325 15.1229C145.707 15.7787 144.942 16.0982 143.966 16.0982C142.453 16.0982 141.396 15.2574 141.152 13.9458H147.967C147.984 13.744 148 13.4917 148 13.3236ZM143.608 10.364C144.942 10.364 145.902 11.2553 146.064 12.5501H141.136C141.331 11.2384 142.291 10.364 143.608 10.364Z" fill="#172E5F"/>
</svg>
